<svg width="90" height="90" viewBox="0 0 90 90" fill="none" xmlns="http://www.w3.org/2000/svg">
<g filter="url(#filter0_d_286_161)">
<rect x="5" y="3" width="80" height="80" rx="10" fill="#0ABF04"/>
</g>
<path d="M67.4001 57.7686V54.7492H65.0602C64.8793 53.9282 64.5441 53.1453 64.0708 52.4385L65.7132 50.8414L63.4771 48.7056L61.8199 50.2885C61.0779 49.8402 60.259 49.5203 59.4008 49.3435V47.1084H56.2397V49.3388C55.3814 49.5155 54.5625 49.8355 53.8206 50.2838L52.1633 48.7009L49.9224 50.8414L51.5796 52.4243C51.1063 53.1311 50.7711 53.914 50.5902 54.735H48.2354V57.7544H50.5754C50.7571 58.5766 51.0923 59.3609 51.5648 60.0698L49.9224 61.6622L52.1584 63.798L53.8156 62.2198C54.5575 62.6683 55.3764 62.9882 56.2347 63.1648V65.3999H59.4008V63.179C60.2591 63.0024 61.078 62.6825 61.8199 62.2339L63.4771 63.8122L65.7132 61.6764L64.0559 60.084C64.5284 59.3751 64.8635 58.5908 65.0453 57.7686H67.4001ZM57.8178 60.7644C56.8822 60.7644 55.9676 60.4993 55.1898 60.0028C54.4119 59.5062 53.8058 58.8004 53.448 57.9747C53.0902 57.149 52.9968 56.2404 53.1797 55.364C53.3626 54.4876 53.8135 53.6827 54.4754 53.0512C55.1373 52.4196 55.9804 51.9897 56.8982 51.816C57.8159 51.6422 58.7669 51.7323 59.631 52.075C60.4951 52.4176 61.2334 52.9973 61.7525 53.7408C62.2715 54.4843 62.5481 55.3581 62.5471 56.2518C62.5458 57.449 62.0469 58.5968 61.1602 59.443C60.2734 60.2891 59.0712 60.7644 57.8178 60.7644Z" fill="#1A1A1A"/>
<path d="M43.0856 23.1137C54.6319 23.1137 60.9344 26.0386 60.9344 27.5412C60.9344 29.0439 54.6319 31.9641 43.0856 31.9641C31.5393 31.9641 25.2319 29.0391 25.2319 27.5412C25.2319 26.0433 31.5344 23.1137 43.0856 23.1137ZM46.5485 62.2717C34.9973 62.2717 25.2319 59.3468 25.2319 57.8489V51.2336C28.9421 53.4592 39.504 54.6216 46.5485 54.6216V52.0889C34.9973 52.0889 25.2319 49.1639 25.2319 47.6613V41.046C28.9421 43.281 36.0411 44.4151 43.0856 44.4151C50.1301 44.4151 57.2291 43.281 60.9344 41.0649V46.0027H63.5662V27.5412C63.5662 22.9625 53.2715 20.5999 43.0856 20.5999C32.8997 20.5999 22.6001 22.9625 22.6001 27.5412V57.8489C22.6001 62.4041 36.3676 64.7856 46.5485 64.7856V62.2717ZM43.0856 41.9012C31.5344 41.9012 25.2319 38.981 25.2319 37.4784V31.1277C28.9421 33.3391 36.0411 34.4779 43.0856 34.4779C50.1301 34.4779 57.2291 33.358 60.9344 31.1277V37.4784C60.9344 38.981 54.6319 41.9012 43.0856 41.9012Z" fill="#1A1A1A"/>
<defs>
<filter id="filter0_d_286_161" x="0" y="0" width="90" height="90" filterUnits="userSpaceOnUse" color-interpolation-filters="sRGB">
<feFlood flood-opacity="0" result="BackgroundImageFix"/>
<feColorMatrix in="SourceAlpha" type="matrix" values="0 0 0 0 0 0 0 0 0 0 0 0 0 0 0 0 0 0 127 0" result="hardAlpha"/>
<feOffset dy="2"/>
<feGaussianBlur stdDeviation="2.5"/>
<feComposite in2="hardAlpha" operator="out"/>
<feColorMatrix type="matrix" values="0 0 0 0 0.0901961 0 0 0 0 0.74902 0 0 0 0 0.121569 0 0 0 0.4 0"/>
<feBlend mode="normal" in2="BackgroundImageFix" result="effect1_dropShadow_286_161"/>
<feBlend mode="normal" in="SourceGraphic" in2="effect1_dropShadow_286_161" result="shape"/>
</filter>
</defs>
</svg>
