<svg width="90" height="90" viewBox="0 0 90 90" fill="none" xmlns="http://www.w3.org/2000/svg">
<g filter="url(#filter0_d_286_145)">
<rect x="5" y="3" width="80" height="80" rx="10" fill="#0ABF04"/>
</g>
<path d="M22.1431 42.9972C22.1416 42.1824 22.3012 41.3753 22.6129 40.6224C22.9245 39.8695 23.3819 39.1857 23.9589 38.6103L40.6144 21.9569C41.779 20.7952 43.3569 20.1428 45.0019 20.1428C46.6469 20.1428 48.2248 20.7952 49.3894 21.9569L66.0449 38.6103C67.2056 39.7753 67.8574 41.3527 67.8574 42.9972C67.8574 44.6416 67.2056 46.2191 66.0449 47.3841L49.3894 64.0375C48.8136 64.6143 48.1297 65.0719 47.3769 65.3842C46.624 65.6964 45.817 65.8571 45.0019 65.8571C44.1868 65.8571 43.3798 65.6964 42.6269 65.3842C41.8741 65.0719 41.1902 64.6143 40.6144 64.0375L23.9589 47.3841C23.3817 46.8088 22.9242 46.125 22.6125 45.3721C22.3009 44.6192 22.1413 43.812 22.1431 42.9972ZM65.5261 42.9972C65.5231 42.1584 65.1888 41.3547 64.5958 40.7612L47.256 23.3924C46.6581 22.7949 45.8473 22.4592 45.0019 22.4592C44.1565 22.4592 43.3457 22.7949 42.7478 23.3924L25.3946 40.7433C25.0981 41.0391 24.863 41.3904 24.7025 41.7771C24.5421 42.1639 24.4595 42.5785 24.4595 42.9972C24.4595 43.4159 24.5421 43.8305 24.7025 44.2172C24.863 44.604 25.0981 44.9553 25.3946 45.251L42.7478 62.6244C43.0436 62.9208 43.3949 63.1559 43.7817 63.3163C44.1685 63.4768 44.5831 63.5594 45.0019 63.5594C45.4207 63.5594 45.8353 63.4768 46.2221 63.3163C46.6089 63.1559 46.9602 62.9208 47.256 62.6244L64.6316 45.251C65.2166 44.6479 65.5384 43.8373 65.5261 42.9972Z" fill="#1A1A1A"/>
<path d="M55.4228 45.7295C55.9634 45.7304 56.4922 45.5709 56.9422 45.2712C57.3922 44.9715 57.7431 44.5451 57.9506 44.0459C58.1581 43.5467 58.2129 42.9972 58.108 42.4669C58.003 41.9366 57.7431 41.4493 57.3611 41.0667C56.9791 40.6842 56.4922 40.4235 55.962 40.3177C55.4318 40.2119 54.8821 40.2657 54.3825 40.4724C53.8829 40.6791 53.4559 41.0293 53.1554 41.4787C52.8549 41.9281 52.6946 42.4566 52.6946 42.9972C52.6946 43.7211 52.9818 44.4154 53.4934 44.9277C54.0049 45.4399 54.6988 45.7283 55.4228 45.7295Z" fill="#1A1A1A"/>
<path d="M45.0019 56.1491C46.5086 56.1491 47.7301 54.9277 47.7301 53.4212C47.7301 51.9146 46.5086 50.6933 45.0019 50.6933C43.4952 50.6933 42.2737 51.9146 42.2737 53.4212C42.2737 54.9277 43.4952 56.1491 45.0019 56.1491Z" fill="#1A1A1A"/>
<path d="M45.0019 35.3055C46.5086 35.3055 47.7301 34.0842 47.7301 32.5777C47.7301 31.0711 46.5086 29.8498 45.0019 29.8498C43.4952 29.8498 42.2737 31.0711 42.2737 32.5777C42.2737 34.0842 43.4952 35.3055 45.0019 35.3055Z" fill="#1A1A1A"/>
<path d="M47.5646 49.9331C48.5647 49.5616 49.4731 48.9791 50.2278 48.2252C50.9826 47.4713 51.5662 46.5636 51.9387 45.5641C51.39 44.8216 51.0938 43.9227 51.0938 42.9994C51.0938 42.0762 51.39 41.1773 51.9387 40.4348C51.5662 39.4352 50.9826 38.5276 50.2278 37.7737C49.4731 37.0197 48.5647 36.4372 47.5646 36.0657C46.8219 36.612 45.924 36.9067 45.0019 36.9067C44.0798 36.9067 43.1819 36.612 42.4392 36.0657C41.4395 36.438 40.5316 37.0208 39.7769 37.7746C39.0222 38.5284 38.4384 39.4356 38.0651 40.4348C38.6138 41.1773 38.91 42.0762 38.91 42.9994C38.91 43.9227 38.6138 44.8216 38.0651 45.5641C38.4384 46.5632 39.0222 47.4704 39.7769 48.2242C40.5316 48.9781 41.4395 49.5608 42.4392 49.9331C43.1808 49.3841 44.0792 49.0878 45.0019 49.0878C45.9247 49.0878 46.823 49.3841 47.5646 49.9331ZM41.9561 42.9972C41.9561 42.3949 42.1348 41.8061 42.4694 41.3053C42.8041 40.8045 43.2798 40.4141 43.8363 40.1836C44.3929 39.9531 45.0053 39.8928 45.5961 40.0103C46.1869 40.1278 46.7296 40.4179 47.1556 40.8438C47.5815 41.2697 47.8716 41.8123 47.9891 42.4031C48.1067 42.9938 48.0463 43.6061 47.8158 44.1626C47.5853 44.7191 47.1949 45.1947 46.694 45.5293C46.1932 45.8639 45.6043 46.0426 45.0019 46.0426C44.1945 46.0414 43.4205 45.7201 42.8495 45.1493C42.2786 44.5784 41.9573 43.8045 41.9561 42.9972Z" fill="#1A1A1A"/>
<path d="M34.581 40.2649C34.0402 40.264 33.5112 40.4236 33.0612 40.7235C32.6111 41.0234 32.2601 41.4501 32.0528 41.9495C31.8454 42.449 31.7909 42.9987 31.8962 43.5291C32.0015 44.0596 32.2618 44.5468 32.6443 44.9292C33.0267 45.3116 33.514 45.5719 34.0445 45.6772C34.575 45.7825 35.1249 45.728 35.6244 45.5207C36.1239 45.3133 36.5506 44.9624 36.8506 44.5124C37.1505 44.0624 37.3101 43.5335 37.3092 42.9927C37.3081 42.2696 37.0202 41.5764 36.5089 41.0651C35.9975 40.5538 35.3042 40.266 34.581 40.2649Z" fill="#1A1A1A"/>
<defs>
<filter id="filter0_d_286_145" x="0" y="0" width="90" height="90" filterUnits="userSpaceOnUse" color-interpolation-filters="sRGB">
<feFlood flood-opacity="0" result="BackgroundImageFix"/>
<feColorMatrix in="SourceAlpha" type="matrix" values="0 0 0 0 0 0 0 0 0 0 0 0 0 0 0 0 0 0 127 0" result="hardAlpha"/>
<feOffset dy="2"/>
<feGaussianBlur stdDeviation="2.5"/>
<feComposite in2="hardAlpha" operator="out"/>
<feColorMatrix type="matrix" values="0 0 0 0 0.0901961 0 0 0 0 0.74902 0 0 0 0 0.121569 0 0 0 0.4 0"/>
<feBlend mode="normal" in2="BackgroundImageFix" result="effect1_dropShadow_286_145"/>
<feBlend mode="normal" in="SourceGraphic" in2="effect1_dropShadow_286_145" result="shape"/>
</filter>
</defs>
</svg>
