<svg width="16" height="12" viewBox="0 0 16 12" fill="none" xmlns="http://www.w3.org/2000/svg">
<path d="M10.692 0.938232L9.63732 1.99292L13.0826 5.43823H0.953728V6.91479H13.0826L9.63732 10.3601L10.692 11.4148L15.9303 6.17651L10.692 0.938232Z" fill="#1A1A1A"/>
<path d="M10.692 0.938232L11.0456 0.584679L10.692 0.231126L10.3385 0.584679L10.692 0.938232ZM9.63732 1.99292L9.28377 1.63937L8.93021 1.99292L9.28377 2.34647L9.63732 1.99292ZM13.0826 5.43823V5.93823H14.2897L13.4362 5.08468L13.0826 5.43823ZM0.953728 5.43823V4.93823H0.453728V5.43823H0.953728ZM0.953728 6.91479H0.453728V7.41479H0.953728V6.91479ZM13.0826 6.91479L13.4362 7.26835L14.2897 6.41479H13.0826V6.91479ZM9.63732 10.3601L9.28377 10.0066L8.93021 10.3601L9.28377 10.7137L9.63732 10.3601ZM10.692 11.4148L10.3385 11.7683L10.692 12.1219L11.0456 11.7683L10.692 11.4148ZM15.9303 6.17651L16.2838 6.53007L16.6374 6.17651L16.2838 5.82296L15.9303 6.17651ZM10.3385 0.584679L9.28377 1.63937L9.99087 2.34647L11.0456 1.29179L10.3385 0.584679ZM9.28377 2.34647L12.7291 5.79179L13.4362 5.08468L9.99087 1.63937L9.28377 2.34647ZM13.0826 4.93823H0.953728V5.93823H13.0826V4.93823ZM0.453728 5.43823V6.91479H1.45373V5.43823H0.453728ZM0.953728 7.41479H13.0826V6.41479H0.953728V7.41479ZM12.7291 6.56124L9.28377 10.0066L9.99087 10.7137L13.4362 7.26835L12.7291 6.56124ZM9.28377 10.7137L10.3385 11.7683L11.0456 11.0612L9.99087 10.0066L9.28377 10.7137ZM11.0456 11.7683L16.2838 6.53007L15.5767 5.82296L10.3385 11.0612L11.0456 11.7683ZM16.2838 5.82296L11.0456 0.584679L10.3385 1.29179L15.5767 6.53007L16.2838 5.82296Z" fill="#1A1A1A"/>
</svg>
