<svg width="74" height="74" viewBox="0 0 74 74" fill="none" xmlns="http://www.w3.org/2000/svg">
<g filter="url(#filter0_d_286_172)">
<rect x="5" y="3" width="64" height="64" rx="10" fill="#0ABF04"/>
</g>
<path d="M49.2412 50.9999H21.6544C20.8284 50.9989 20.0364 50.6581 19.4523 50.0524C18.8682 49.4466 18.5396 48.6254 18.5386 47.7687V30.3504C18.5396 29.4937 18.8682 28.6725 19.4523 28.0667C20.0364 27.4609 20.8284 27.1202 21.6544 27.1191H22.6152V29.1821H21.6544C21.3547 29.1821 21.0672 29.3056 20.8552 29.5255C20.6432 29.7453 20.5241 30.0434 20.5241 30.3543V47.7687C20.5241 48.0796 20.6432 48.3777 20.8552 48.5975C21.0672 48.8174 21.3547 48.9409 21.6544 48.9409H49.2412C49.541 48.9409 49.8285 48.8174 50.0405 48.5975C50.2525 48.3777 50.3715 48.0796 50.3715 47.7687V45.5064H52.3571V47.7687C52.3561 48.6254 52.0275 49.4466 51.4434 50.0524C50.8593 50.6581 50.0673 50.9989 49.2412 50.9999Z" fill="#1A1A1A"/>
<path d="M54.4482 26.3377H22.6152V28.3968H54.4482V26.3377Z" fill="#1A1A1A"/>
<path d="M29.9546 25.4898H26.5901C26.4545 25.4985 26.3188 25.4783 26.1911 25.4305C26.0633 25.3827 25.9464 25.3082 25.8475 25.2118C25.7486 25.1153 25.6698 24.9989 25.6159 24.8696C25.562 24.7404 25.5342 24.6011 25.5342 24.4603C25.5342 24.3195 25.562 24.1802 25.6159 24.0509C25.6698 23.9217 25.7486 23.8053 25.8475 23.7088C25.9464 23.6124 26.0633 23.5379 26.1911 23.4901C26.3188 23.4423 26.4545 23.4221 26.5901 23.4307H29.9546C30.0901 23.4221 30.2259 23.4423 30.3536 23.4901C30.4813 23.5379 30.5982 23.6124 30.6971 23.7088C30.796 23.8053 30.8749 23.9217 30.9288 24.0509C30.9826 24.1802 31.0104 24.3195 31.0104 24.4603C31.0104 24.6011 30.9826 24.7404 30.9288 24.8696C30.8749 24.9989 30.796 25.1153 30.6971 25.2118C30.5982 25.3082 30.4813 25.3827 30.3536 25.4305C30.2259 25.4783 30.0901 25.4985 29.9546 25.4898Z" fill="#1A1A1A"/>
<path d="M36.6949 25.4898H33.3304C33.0777 25.4737 32.8404 25.3582 32.667 25.1669C32.4935 24.9756 32.3969 24.7229 32.3969 24.4603C32.3969 24.1977 32.4935 23.945 32.667 23.7537C32.8404 23.5624 33.0777 23.4469 33.3304 23.4307H36.6949C36.8304 23.4221 36.9662 23.4423 37.0939 23.4901C37.2216 23.5379 37.3386 23.6124 37.4375 23.7088C37.5364 23.8053 37.6152 23.9217 37.6691 24.0509C37.723 24.1802 37.7508 24.3195 37.7508 24.4603C37.7508 24.6011 37.723 24.7404 37.6691 24.8696C37.6152 24.9989 37.5364 25.1153 37.4375 25.2118C37.3386 25.3082 37.2216 25.3827 37.0939 25.4305C36.9662 25.4783 36.8304 25.4985 36.6949 25.4898Z" fill="#1A1A1A"/>
<path d="M50.2773 25.4898H49.6255C49.49 25.4985 49.3542 25.4783 49.2265 25.4305C49.0988 25.3827 48.9819 25.3082 48.883 25.2118C48.7841 25.1153 48.7053 24.9989 48.6514 24.8696C48.5975 24.7404 48.5697 24.6011 48.5697 24.4603C48.5697 24.3195 48.5975 24.1802 48.6514 24.0509C48.7053 23.9217 48.7841 23.8053 48.883 23.7088C48.9819 23.6124 49.0988 23.5379 49.2265 23.4901C49.3542 23.4423 49.49 23.4221 49.6255 23.4307H50.2773C50.4129 23.4221 50.5487 23.4423 50.6764 23.4901C50.8041 23.5379 50.921 23.6124 51.0199 23.7088C51.1188 23.8053 51.1976 23.9217 51.2515 24.0509C51.3054 24.1802 51.3332 24.3195 51.3332 24.4603C51.3332 24.6011 51.3054 24.7404 51.2515 24.8696C51.1976 24.9989 51.1188 25.1153 51.0199 25.2118C50.921 25.3082 50.8041 25.3827 50.6764 25.4305C50.5487 25.4783 50.4129 25.4985 50.2773 25.4898Z" fill="#1A1A1A"/>
<path d="M52.327 45.7526H24.7401C23.9141 45.7515 23.1221 45.4108 22.538 44.805C21.9539 44.1993 21.6253 43.378 21.6243 42.5213V23.462C21.6253 22.6053 21.9539 21.7841 22.538 21.1783C23.1221 20.5726 23.9141 20.2318 24.7401 20.2308H52.327C52.7376 20.2287 53.1446 20.3107 53.5245 20.4721C53.9045 20.6336 54.25 20.8712 54.5413 21.1714C54.8325 21.4716 55.0637 21.8285 55.2217 22.2215C55.3796 22.6146 55.4612 23.0362 55.4617 23.462V42.5213C55.4612 42.9472 55.3796 43.3687 55.2217 43.7618C55.0637 44.1549 54.8325 44.5117 54.5413 44.8119C54.25 45.1121 53.9045 45.3498 53.5245 45.5112C53.1446 45.6726 52.7376 45.7546 52.327 45.7526ZM24.7401 22.3094C24.4404 22.3094 24.1529 22.4329 23.9409 22.6527C23.7289 22.8725 23.6098 23.1707 23.6098 23.4815V42.5213C23.6098 42.8322 23.7289 43.1303 23.9409 43.3502C24.1529 43.57 24.4404 43.6935 24.7401 43.6935H52.327C52.6267 43.6935 52.9142 43.57 53.1262 43.3502C53.3382 43.1303 53.4573 42.8322 53.4573 42.5213V23.462C53.4573 23.1511 53.3382 22.853 53.1262 22.6332C52.9142 22.4133 52.6267 22.2898 52.327 22.2898L24.7401 22.3094Z" fill="#1A1A1A"/>
<path d="M35.5722 38.0788L33.6092 36.0471H37.5276L39.5131 33.988H31.2243C31.0489 33.9913 30.8773 34.0413 30.7259 34.1331C30.5745 34.2249 30.4483 34.3554 30.3594 34.5122C30.2706 34.6691 30.222 34.8469 30.2184 35.0288C30.2148 35.2106 30.2563 35.3904 30.3389 35.5509L34.1668 39.5323L35.5722 38.0788Z" fill="#1A1A1A"/>
<path d="M41.4949 33.9919L43.4541 36.0236H39.5395L37.554 38.0827H45.8428C46.0181 38.079 46.1895 38.0288 46.3409 37.9371C46.4922 37.8453 46.6184 37.7149 46.7075 37.5583C46.7966 37.4017 46.8456 37.2241 46.8499 37.0424C46.8542 36.8606 46.8136 36.6808 46.732 36.5199L42.9003 32.5345L41.4949 33.9919Z" fill="#1A1A1A"/>
<defs>
<filter id="filter0_d_286_172" x="0" y="0" width="74" height="74" filterUnits="userSpaceOnUse" color-interpolation-filters="sRGB">
<feFlood flood-opacity="0" result="BackgroundImageFix"/>
<feColorMatrix in="SourceAlpha" type="matrix" values="0 0 0 0 0 0 0 0 0 0 0 0 0 0 0 0 0 0 127 0" result="hardAlpha"/>
<feOffset dy="2"/>
<feGaussianBlur stdDeviation="2.5"/>
<feComposite in2="hardAlpha" operator="out"/>
<feColorMatrix type="matrix" values="0 0 0 0 0.0901961 0 0 0 0 0.74902 0 0 0 0 0.121569 0 0 0 0.4 0"/>
<feBlend mode="normal" in2="BackgroundImageFix" result="effect1_dropShadow_286_172"/>
<feBlend mode="normal" in="SourceGraphic" in2="effect1_dropShadow_286_172" result="shape"/>
</filter>
</defs>
</svg>
