<svg width="427" height="324" viewBox="0 0 427 324" fill="none" xmlns="http://www.w3.org/2000/svg">
<g clip-path="url(#clip0_592_2073)">
<path d="M379.245 30.0281H53.1655C46.8609 30.0281 41.75 35.1451 41.75 41.4572V57.5913C41.75 63.9034 46.8609 69.0204 53.1655 69.0204H379.245C385.55 69.0204 390.66 63.9034 390.66 57.5913V41.4572C390.66 35.1451 385.55 30.0281 379.245 30.0281Z" fill="#8366FF"/>
<path d="M379.245 70.9252H53.1657C49.6336 70.9252 46.2459 69.5203 43.7483 67.0197C41.2507 64.5191 39.8477 61.1276 39.8477 57.5912V41.4571C39.8477 37.9207 41.2507 34.5292 43.7483 32.0286C46.2459 29.528 49.6336 28.1232 53.1657 28.1232H379.245C382.777 28.1232 386.165 29.528 388.662 32.0286C391.16 34.5292 392.563 37.9207 392.563 41.4571V57.5912C392.563 61.1276 391.16 64.5191 388.662 67.0197C386.165 69.5203 382.777 70.9252 379.245 70.9252ZM53.1657 31.9329C50.6427 31.9329 48.2231 32.9363 46.4391 34.7225C44.655 36.5086 43.6528 38.9311 43.6528 41.4571V57.5912C43.6528 60.1172 44.655 62.5397 46.4391 64.3259C48.2231 66.112 50.6427 67.1155 53.1657 67.1155H379.245C381.768 67.1155 384.188 66.112 385.972 64.3259C387.756 62.5397 388.758 60.1172 388.758 57.5912V41.4571C388.758 38.9311 387.756 36.5086 385.972 34.7225C384.188 32.9363 381.768 31.9329 379.245 31.9329H53.1657Z" fill="#8366FF"/>
<path d="M379.043 84.2592H53.3672C46.9512 84.2592 41.75 89.4665 41.75 95.8902V290.718C41.75 297.142 46.9512 302.349 53.3672 302.349H379.043C385.459 302.349 390.66 297.142 390.66 290.718V95.8902C390.66 89.4665 385.459 84.2592 379.043 84.2592Z" fill="#8366FF"/>
<path d="M379.044 304.289H53.3675C49.774 304.285 46.3289 302.854 43.7879 300.31C41.2469 297.766 39.8175 294.316 39.8135 290.718V95.894C39.8175 92.2962 41.2469 88.847 43.7879 86.3029C46.3289 83.7589 49.774 82.3279 53.3675 82.3239H379.044C382.637 82.3279 386.082 83.7589 388.623 86.3029C391.164 88.847 392.594 92.2962 392.598 95.894V290.718C392.594 294.316 391.164 297.766 388.623 300.31C386.082 302.854 382.637 304.285 379.044 304.289ZM53.3675 86.1983C50.8004 86.2014 48.3394 87.224 46.5245 89.0417C44.7097 90.8595 43.6892 93.3238 43.6872 95.894V290.718C43.6902 293.288 44.7111 295.751 46.5258 297.568C48.3406 299.385 50.8011 300.407 53.3675 300.41H379.044C381.61 300.407 384.071 299.385 385.885 297.568C387.7 295.751 388.721 293.288 388.724 290.718V95.894C388.722 93.3238 387.702 90.8595 385.887 89.0417C384.072 87.224 381.611 86.2014 379.044 86.1983H53.3675Z" fill="#8366FF"/>
<path d="M372.507 22.4087H46.4272C40.1226 22.4087 35.0117 27.5257 35.0117 33.8378V49.9719C35.0117 56.284 40.1226 61.401 46.4272 61.401H372.507C378.811 61.401 383.922 56.284 383.922 49.9719V33.8378C383.922 27.5257 378.811 22.4087 372.507 22.4087Z" fill="white"/>
<path d="M372.51 63.3058H46.4304C42.8982 63.3058 39.5108 61.901 37.0132 59.4004C34.5155 56.8997 33.1123 53.5082 33.1123 49.9718V33.8377C33.1123 30.3014 34.5155 26.9098 37.0132 24.4092C39.5108 21.9086 42.8982 20.5038 46.4304 20.5038H372.51C376.042 20.5038 379.429 21.9086 381.927 24.4092C384.425 26.9098 385.828 30.3014 385.828 33.8377V49.9718C385.828 53.5082 384.425 56.8997 381.927 59.4004C379.429 61.901 376.042 63.3058 372.51 63.3058ZM46.4304 24.3135C43.9074 24.3135 41.4877 25.3169 39.7037 27.1031C37.9197 28.8892 36.9175 31.3118 36.9175 33.8377V49.9718C36.9175 52.4978 37.9197 54.9203 39.7037 56.7065C41.4877 58.4926 43.9074 59.4961 46.4304 59.4961H372.51C375.033 59.4961 377.453 58.4926 379.237 56.7065C381.021 54.9203 382.023 52.4978 382.023 49.9718V33.8377C382.023 31.3118 381.021 28.8892 379.237 27.1031C377.453 25.3169 375.033 24.3135 372.51 24.3135H46.4304Z" fill="#282828"/>
<path d="M372.305 76.6398H46.6289C40.2129 76.6398 35.0117 81.8472 35.0117 88.2708V283.099C35.0117 289.523 40.2129 294.73 46.6289 294.73H372.305C378.721 294.73 383.922 289.523 383.922 283.099V88.2708C383.922 81.8472 378.721 76.6398 372.305 76.6398Z" fill="white"/>
<path d="M372.308 296.669H46.6322C43.0387 296.665 39.5934 295.234 37.0524 292.69C34.5114 290.146 33.0822 286.697 33.0781 283.099V88.2746C33.0822 84.6768 34.5114 81.2276 37.0524 78.6835C39.5934 76.1395 43.0387 74.7085 46.6322 74.7045H372.308C375.902 74.7085 379.347 76.1395 381.888 78.6835C384.429 81.2276 385.858 84.6768 385.862 88.2746V283.099C385.858 286.697 384.429 290.146 381.888 292.69C379.347 295.234 375.902 296.665 372.308 296.669ZM46.6322 78.579C44.065 78.582 41.6039 79.6046 39.789 81.4223C37.9741 83.2401 36.9537 85.7044 36.9517 88.2746V283.099C36.9547 285.669 37.9755 288.132 39.7903 289.949C41.6051 291.766 44.0657 292.788 46.6322 292.791H372.308C374.875 292.788 377.335 291.766 379.15 289.949C380.965 288.132 381.985 285.669 381.988 283.099V88.2746C381.986 85.7044 380.966 83.2401 379.151 81.4223C377.336 79.6046 374.875 78.582 372.308 78.579H46.6322Z" fill="#282828"/>
<path d="M56.6631 48.2422C54.9833 48.2422 53.3412 47.7435 51.9445 46.8092C50.5478 45.8748 49.4592 44.5468 48.8164 42.993C48.1736 41.4392 48.0054 39.7295 48.3331 38.0801C48.6608 36.4306 49.4697 34.9155 50.6575 33.7263C51.8453 32.5371 53.3586 31.7272 55.0061 31.3991C56.6536 31.071 58.3613 31.2394 59.9132 31.883C61.4651 32.5266 62.7915 33.6165 63.7247 35.0148C64.6579 36.4132 65.1561 38.0572 65.1561 39.739C65.1531 41.9932 64.2574 44.1543 62.6653 45.7483C61.0732 47.3424 58.9146 48.2392 56.6631 48.2422ZM56.6631 35.0454C55.7359 35.0454 54.8295 35.3207 54.0585 35.8364C53.2876 36.3522 52.6867 37.0852 52.3319 37.9428C51.9771 38.8005 51.8842 39.7442 52.0651 40.6546C52.246 41.5651 52.6926 42.4014 53.3482 43.0578C54.0038 43.7142 54.839 44.1613 55.7484 44.3424C56.6577 44.5235 57.6003 44.4305 58.4569 44.0753C59.3136 43.72 60.0458 43.1184 60.5609 42.3466C61.076 41.5747 61.3509 40.6673 61.3509 39.739C61.3509 38.4935 60.8574 37.2989 59.9784 36.4174C59.0995 35.536 57.9071 35.0398 56.6631 35.0378V35.0454Z" fill="#282828"/>
<path d="M62.9123 42.7878L60.2217 45.4817L66.7546 52.0224L69.4452 49.3285L62.9123 42.7878Z" fill="#282828"/>
<path d="M358.723 33.7517L356.032 36.4456L369.558 49.9876L372.249 47.2938L358.723 33.7517Z" fill="#282828"/>
<path d="M369.585 33.7887L356.059 47.3309L358.749 50.0248L372.275 36.4826L369.585 33.7887Z" fill="#282828"/>
<path d="M358.473 101.353H58.7178V105.037H358.473V101.353Z" fill="#282828"/>
<path d="M48.3026 125.85H21.7197V129.534H48.3026V125.85Z" fill="#8366FF"/>
<path d="M41.7498 134.227H15.167V137.911H41.7498V134.227Z" fill="#8366FF"/>
<path d="M280.376 311.942H253.793V315.626H280.376V311.942Z" fill="#8366FF"/>
<path d="M260.528 320.32H247.236V324.004H260.528V320.32Z" fill="#8366FF"/>
<path d="M417.932 41.3772H406.615V45.0612H417.932V41.3772Z" fill="#8366FF"/>
<path d="M426.642 49.7548H400.06V53.4387H426.642V49.7548Z" fill="#8366FF"/>
<path d="M166.925 0H150.357V3.68398H166.925V0Z" fill="#8366FF"/>
<path d="M165.463 15.7227H153.492V19.4066H165.463V15.7227Z" fill="#8366FF"/>
<path d="M160.372 8.37756H143.805V12.0615H160.372V8.37756Z" fill="#8366FF"/>
<path d="M24.8062 258.763H6.55664V262.447H24.8062V258.763Z" fill="#8366FF"/>
<path d="M16.7465 267.14H0V270.824H16.7465V267.14Z" fill="#8366FF"/>
<path d="M421.384 242.331H394.801V246.015H421.384V242.331Z" fill="#8366FF"/>
<path d="M406.342 249.897H398.663V253.581H406.342V249.897Z" fill="#8366FF"/>
<path d="M427 232.651H405.246V236.335H427V232.651Z" fill="#8366FF"/>
<path d="M358.473 128.981H58.7178V132.665H358.473V128.981Z" fill="#282828"/>
<path d="M358.473 156.613H58.7178V160.297H358.473V156.613Z" fill="#282828"/>
<path d="M358.473 184.245H58.7178V187.929H358.473V184.245Z" fill="#282828"/>
<path d="M358.473 211.877H58.7178V215.561H358.473V211.877Z" fill="#282828"/>
<path d="M358.473 239.508H58.7178V243.192H358.473V239.508Z" fill="#282828"/>
<path d="M358.473 267.14H58.7178V270.824H358.473V267.14Z" fill="#282828"/>
</g>
<defs>
<clipPath id="clip0_592_2073">
<rect width="427" height="324" fill="white"/>
</clipPath>
</defs>
</svg>
