<svg width="65" height="83" viewBox="0 0 65 83" fill="none" xmlns="http://www.w3.org/2000/svg">
<path d="M25.1875 68.706H2.76539C2.02671 68.6818 1.32609 68.3726 0.810504 67.8431C0.294918 67.3135 0.00443619 66.6049 0 65.8659V2.84117C0 2.08792 0.299227 1.36553 0.831854 0.832898C1.36448 0.300271 2.08688 0.00104379 2.84013 0.00104379H38.6967C39.3755 -0.0173561 40.0384 0.208024 40.5653 0.636336L54.9714 12.3332C55.3046 12.597 55.5747 12.9318 55.7622 13.3132C55.9497 13.6947 56.0498 14.1131 56.0552 14.538V34.3442H52.3182V14.9491L38.3791 3.73805H3.73701V64.969H25.1875V68.706Z" fill="#1A1A1A"/>
<path d="M54.1491 15.9395H37.1831V1.86963H40.9201V12.2025H54.1491V15.9395Z" fill="#1A1A1A"/>
<path d="M13.6774 55.6451C13.0216 55.6476 12.3717 55.5202 11.7653 55.2704C11.1589 55.0205 10.608 54.6532 10.1442 54.1894C9.68047 53.7256 9.31308 53.1747 9.06324 52.5683C8.8134 51.9619 8.68604 51.312 8.68851 50.6562H12.4255C12.424 50.8569 12.4707 51.055 12.5617 51.2339C12.6528 51.4127 12.7855 51.5671 12.9487 51.6839C13.1649 51.8273 13.418 51.9052 13.6774 51.9081C14.0094 51.9081 14.3279 51.7762 14.5626 51.5414C14.7974 51.3066 14.9293 50.9882 14.9293 50.6562C14.9293 50.3242 14.7974 50.0057 14.5626 49.771C14.3279 49.5362 14.0094 49.4043 13.6774 49.4043C12.6915 49.4006 11.7288 49.1049 10.9108 48.5544C10.0929 48.004 9.45635 47.2236 9.08161 46.3117C8.70688 45.3997 8.61074 44.3972 8.80535 43.4307C8.99995 42.4642 9.47656 41.577 10.175 40.8811C10.8735 40.1853 11.7624 39.712 12.7297 39.521C13.6969 39.33 14.6991 39.4299 15.6096 39.8081C16.5201 40.1862 17.2981 40.8256 17.8455 41.6457C18.3929 42.4657 18.685 43.4295 18.685 44.4154H14.948C14.9475 44.2425 14.9106 44.0716 14.8398 43.9139C14.769 43.7562 14.6658 43.6151 14.5369 43.4998C14.3873 43.3603 14.2058 43.2596 14.0082 43.2065C13.8107 43.1534 13.6031 43.1495 13.4037 43.1952C13.2043 43.2408 13.0191 43.3347 12.8644 43.4685C12.7096 43.6023 12.59 43.772 12.516 43.9627C12.4421 44.1534 12.4159 44.3594 12.44 44.5625C12.464 44.7657 12.5374 44.9598 12.6539 45.128C12.7703 45.2962 12.9262 45.4333 13.1079 45.5273C13.2896 45.6213 13.4915 45.6694 13.6961 45.6673C15.0192 45.6673 16.2882 46.1929 17.2238 47.1285C18.1594 48.0641 18.685 49.3331 18.685 50.6562C18.685 51.9793 18.1594 53.2483 17.2238 54.1839C16.2882 55.1195 15.0192 55.6451 13.6961 55.6451H13.6774Z" fill="#0ABF04"/>
<path d="M15.5456 37.969H11.8086V40.6036H15.5456V37.969Z" fill="#0ABF04"/>
<path d="M15.5456 54.3186H11.8086V56.9532H15.5456V54.3186Z" fill="#0ABF04"/>
<path d="M61.847 82.9999H26.3454C25.5575 82.9999 24.8018 82.6869 24.2447 82.1298C23.6875 81.5726 23.3745 80.817 23.3745 80.029V35.5025C23.3794 34.7178 23.6946 33.967 24.2513 33.4138C24.8079 32.8607 25.5607 32.5503 26.3454 32.5503H61.847C62.6317 32.5503 63.3846 32.8607 63.9412 33.4138C64.4978 33.967 64.813 34.7178 64.818 35.5025V80.029C64.8131 80.8154 64.4985 81.5683 63.9424 82.1244C63.3863 82.6805 62.6335 82.995 61.847 82.9999ZM27.0555 79.2629H61.0809V36.2873H27.0555V79.2629Z" fill="#1A1A1A"/>
<path d="M55.7382 51.9643H32.6248C31.8566 51.9643 31.12 51.6591 30.5769 51.116C30.0337 50.5729 29.7286 49.8362 29.7286 49.0681V43.3691C29.7261 42.9881 29.7993 42.6104 29.944 42.2579C30.0886 41.9054 30.3019 41.5851 30.5713 41.3157C30.8407 41.0463 31.161 40.833 31.5135 40.6884C31.866 40.5437 32.2437 40.4705 32.6248 40.473H55.7382C56.5063 40.473 57.2429 40.7781 57.7861 41.3212C58.3292 41.8644 58.6344 42.601 58.6344 43.3691V49.0681C58.6295 49.8347 58.3228 50.5685 57.7807 51.1106C57.2386 51.6527 56.5048 51.9594 55.7382 51.9643ZM33.4656 48.2273H54.8973V44.21H33.4656V48.2273Z" fill="#1A1A1A"/>
<path d="M55.9061 76.0866H32.2321C31.5383 76.0866 30.873 75.811 30.3824 75.3204C29.8918 74.8298 29.6162 74.1645 29.6162 73.4707V58.5226C29.6162 57.8289 29.8918 57.1635 30.3824 56.6729C30.873 56.1823 31.5383 55.9067 32.2321 55.9067H55.9061C56.5999 55.9067 57.2652 56.1823 57.7558 56.6729C58.2464 57.1635 58.522 57.8289 58.522 58.5226V73.4707C58.522 74.1645 58.2464 74.8298 57.7558 75.3204C57.2652 75.811 56.5999 76.0866 55.9061 76.0866ZM33.3532 72.3496H54.785V59.5877H33.3532V72.3496Z" fill="#1A1A1A"/>
<path d="M41.4992 57.5137H37.7622V74.0126H41.4992V57.5137Z" fill="#1A1A1A"/>
<path d="M50.3747 57.5137H46.6377V74.0126H50.3747V57.5137Z" fill="#1A1A1A"/>
<path d="M56.9937 63.8023L31.582 64.0564L31.6194 67.7934L57.0311 67.5393L56.9937 63.8023Z" fill="#1A1A1A"/>
<path d="M29.9522 9.82959H10.5571V13.5666H29.9522V9.82959Z" fill="#1A1A1A"/>
<path d="M29.9522 17.3782H10.5571V21.1152H29.9522V17.3782Z" fill="#1A1A1A"/>
<path d="M45.2926 24.9082H10.5571V28.6452H45.2926V24.9082Z" fill="#1A1A1A"/>
</svg>
