<svg width="79" height="72" viewBox="0 0 79 72" fill="none" xmlns="http://www.w3.org/2000/svg">
<path d="M74.0267 52.2626H4.95605V8.5144H74.0267V52.2626ZM8.3619 48.8567H70.6208V11.9203H8.3619V48.8567Z" fill="#1A1A1A"/>
<path d="M75.4232 11.9205H3.55976C3.08579 11.9183 2.61697 11.8219 2.18057 11.637C1.74417 11.452 1.34889 11.1821 1.01772 10.843C0.686545 10.5039 0.426086 10.1024 0.251483 9.66173C0.0768799 9.22108 -0.00838367 8.75011 0.000649553 8.27622V3.55911C0.00512733 2.61656 0.381542 1.71388 1.04804 1.04739C1.71453 0.380893 2.61721 0.00447778 3.55976 2.30185e-10L75.4232 2.30184e-10C76.3687 -1.07199e-05 77.2757 0.374422 77.9459 1.0414C78.6161 1.70838 78.9949 2.61362 78.9994 3.55911V8.27622C79.0084 8.75154 78.9226 9.22391 78.7469 9.66568C78.5713 10.1074 78.3093 10.5098 77.9763 10.8491C77.6433 11.1884 77.246 11.4579 76.8077 11.6419C76.3693 11.8259 75.8986 11.9206 75.4232 11.9205ZM3.55976 3.40585C3.51912 3.40585 3.48013 3.422 3.45139 3.45074C3.42265 3.47948 3.4065 3.51847 3.4065 3.55911V8.27622C3.38914 8.30113 3.37957 8.33063 3.379 8.36099C3.37843 8.39135 3.38689 8.42119 3.40331 8.44673C3.41973 8.47228 3.44337 8.49236 3.47122 8.50445C3.49908 8.51654 3.52989 8.52008 3.55976 8.51463H75.4232C75.4656 8.51484 75.5065 8.49925 75.538 8.47091C75.5695 8.44257 75.5893 8.40351 75.5935 8.36136V3.55911C75.5893 3.51696 75.5695 3.4779 75.538 3.44956C75.5065 3.42122 75.4656 3.40564 75.4232 3.40585H3.55976Z" fill="#1A1A1A"/>
<path d="M73.3455 58.4272H5.63724C4.69174 58.4227 3.7865 58.0439 3.11953 57.3737C2.45255 56.7036 2.07811 55.7965 2.07813 54.851V52.4158C2.07813 51.4719 2.4531 50.5666 3.12057 49.8992C3.78803 49.2317 4.6933 48.8567 5.63724 48.8567H73.3455C73.8136 48.8545 74.2774 48.945 74.7102 49.1231C75.1431 49.3011 75.5363 49.5632 75.8672 49.8941C76.1982 50.2251 76.4603 50.6183 76.6383 51.0512C76.8164 51.484 76.9069 51.9478 76.9047 52.4158V54.851C76.9069 55.3198 76.8165 55.7845 76.6386 56.2183C76.4608 56.652 76.199 57.0464 75.8683 57.3787C75.5375 57.711 75.1444 57.9747 74.7115 58.1546C74.2786 58.3346 73.8144 58.4272 73.3455 58.4272ZM5.63724 52.2626C5.59659 52.2626 5.55761 52.2787 5.52887 52.3075C5.50012 52.3362 5.48398 52.3752 5.48398 52.4158V54.851C5.48376 54.8934 5.49935 54.9343 5.52769 54.9658C5.55603 54.9973 5.59509 55.0171 5.63724 55.0213H73.3455C73.3877 55.0171 73.4268 54.9973 73.4551 54.9658C73.4834 54.9343 73.499 54.8934 73.4988 54.851V52.4158C73.4988 52.3752 73.4827 52.3362 73.4539 52.3075C73.4252 52.2787 73.3862 52.2626 73.3455 52.2626H5.63724Z" fill="#1A1A1A"/>
<path d="M41.1949 56.7246H37.7891V61.5779H41.1949V56.7246Z" fill="#1A1A1A"/>
<path d="M39.4921 71.5225C38.347 71.5225 37.2275 71.1829 36.2754 70.5467C35.3232 69.9105 34.5811 69.0063 34.1429 67.9483C33.7047 66.8903 33.59 65.7261 33.8134 64.603C34.0368 63.4799 34.5882 62.4482 35.398 61.6385C36.2077 60.8287 37.2394 60.2773 38.3625 60.0539C39.4857 59.8305 40.6498 59.9451 41.7078 60.3834C42.7658 60.8216 43.6701 61.5637 44.3063 62.5158C44.9425 63.468 45.282 64.5874 45.282 65.7326C45.2776 67.2668 44.6661 68.7369 43.5812 69.8217C42.4964 70.9066 41.0263 71.518 39.4921 71.5225ZM39.4921 63.3485C39.0206 63.3485 38.5596 63.4883 38.1676 63.7503C37.7755 64.0122 37.4699 64.3846 37.2895 64.8202C37.109 65.2559 37.0618 65.7352 37.1538 66.1977C37.2458 66.6602 37.4729 67.085 37.8063 67.4184C38.1397 67.7518 38.5645 67.9789 39.027 68.0709C39.4895 68.1628 39.9688 68.1156 40.4045 67.9352C40.8401 67.7547 41.2124 67.4492 41.4744 67.0571C41.7364 66.665 41.8762 66.2041 41.8762 65.7326C41.8853 65.4138 41.8304 65.0965 41.7146 64.7993C41.5989 64.5021 41.4248 64.2312 41.2025 64.0026C40.9802 63.7739 40.7142 63.5922 40.4205 63.4681C40.1267 63.3441 39.811 63.2802 39.4921 63.2804V63.3485Z" fill="#1A1A1A"/>
<path d="M23.5692 43.6802H23.416C20.531 43.6194 17.7811 42.4462 15.7406 40.4057C13.7002 38.3653 12.527 35.6154 12.4662 32.7304C12.4436 31.2652 12.7114 29.81 13.2539 28.4488C13.7965 27.0876 14.6032 25.8472 15.6274 24.7992C16.6517 23.7512 17.8732 22.9164 19.2217 22.3427C20.5701 21.7691 22.0187 21.4681 23.4841 21.457H25.187V23.2451V30.8742H34.5361V32.6623C34.5181 35.5981 33.338 38.4073 31.254 40.4753C29.1701 42.5434 26.3519 43.7018 23.416 43.6972L23.5692 43.6802ZM21.8663 25.0502C20.1449 25.4437 18.6106 26.4159 17.5196 27.8044C16.4287 29.1929 15.8471 30.9137 15.872 32.6793C15.9359 34.6734 16.7566 36.5683 18.1673 37.979C19.5781 39.3898 21.473 40.2105 23.4671 40.2744C24.4818 40.2959 25.4905 40.1125 26.4327 39.735C27.3749 39.3575 28.2313 38.7938 28.9505 38.0776C30.0143 37.0389 30.7538 35.7138 31.0791 34.263H21.9344V32.5601L21.8663 25.0502Z" fill="#0ABF04"/>
<path d="M37.2431 29.9376H26.2593V28.2347V17.1997H27.9622C30.8792 17.2307 33.668 18.4033 35.7308 20.4661C37.7936 22.5288 38.9661 25.3176 38.9972 28.2347V29.9376H37.2431ZM29.597 26.5317H35.421C35.0858 25.1182 34.3632 23.8261 33.3345 22.8003C32.3058 21.7746 31.0115 21.0559 29.597 20.7248V26.5317Z" fill="#0ABF04"/>
<path d="M61.1695 45.4171H48.1932C47.4843 45.4171 46.7823 45.2775 46.1274 45.0062C45.4724 44.7349 44.8773 44.3373 44.376 43.836C43.8748 43.3347 43.4771 42.7396 43.2058 42.0847C42.9346 41.4297 42.7949 40.7277 42.7949 40.0188V20.6736C42.8084 19.2508 43.3831 17.8908 44.394 16.8894C45.4049 15.8881 46.7703 15.3264 48.1932 15.3264H61.1695C62.5998 15.3309 63.9703 15.9011 64.9817 16.9125C65.9931 17.9239 66.5633 19.2944 66.5678 20.7247V40.0188C66.5633 41.4492 65.9931 42.8196 64.9817 43.831C63.9703 44.8424 62.5998 45.4126 61.1695 45.4171ZM48.1932 18.7323C47.6648 18.7323 47.158 18.9422 46.7843 19.3158C46.4107 19.6895 46.2008 20.1963 46.2008 20.7247V40.0188C46.2008 40.5473 46.4107 41.054 46.7843 41.4277C47.158 41.8013 47.6648 42.0113 48.1932 42.0113H61.1695C61.6979 42.0113 62.2047 41.8013 62.5783 41.4277C62.952 41.054 63.1619 40.5473 63.1619 40.0188V20.6736C63.1486 20.1541 62.9328 19.6603 62.5606 19.2977C62.1884 18.935 61.6892 18.7321 61.1695 18.7323H48.1932Z" fill="#0ABF04"/>
<path d="M61.5444 21.7292H47.8018V25.1351H61.5444V21.7292Z" fill="#0ABF04"/>
<path d="M61.5444 28.6433H47.8018V32.0492H61.5444V28.6433Z" fill="#0ABF04"/>
<path d="M61.5444 35.5569H47.8018V38.9627H61.5444V35.5569Z" fill="#0ABF04"/>
</svg>
