<svg width="79" height="65" viewBox="0 0 79 65" fill="none" xmlns="http://www.w3.org/2000/svg">
<path d="M76.779 55.9525H8.58072C7.99721 55.9441 7.44045 55.7063 7.0308 55.2905C6.62116 54.8746 6.39154 54.3142 6.3916 53.7304V2.22211C6.39154 1.63827 6.62116 1.07786 7.0308 0.662039C7.44045 0.246219 7.99721 0.00840062 8.58072 0H76.779C77.3681 0 77.933 0.234115 78.3496 0.650842C78.7661 1.06757 79.0001 1.63277 79.0001 2.22211V53.7304C79.0001 54.3197 78.7661 54.8849 78.3496 55.3017C77.933 55.7184 77.3681 55.9525 76.779 55.9525ZM9.5874 52.7552H75.8043V3.19729H9.5874V52.7552Z" fill="#1A1A1A"/>
<path d="M70.4194 64.921H2.22108C1.63201 64.921 1.06707 64.6869 0.650539 64.2701C0.234006 63.8534 0 63.2882 0 62.6989L0 14.3879C0 13.7985 0.234006 13.2333 0.650539 12.8166C1.06707 12.3999 1.63201 12.1658 2.22108 12.1658H7.98949V15.3631H3.1958V61.7237H69.4287V54.3539H72.6245V62.6989C72.6245 63.2854 72.3927 63.8482 71.9796 64.2645C71.5665 64.6808 71.0057 64.9168 70.4194 64.921Z" fill="#1A1A1A"/>
<path d="M77.3862 9.38403H7.95752V12.5813H77.3862V9.38403Z" fill="#1A1A1A"/>
<path d="M23.0895 7.99318H15.5793C15.1556 7.99318 14.7491 7.82476 14.4495 7.52495C14.1498 7.22515 13.9814 6.81853 13.9814 6.39454C13.9814 5.97055 14.1498 5.56393 14.4495 5.26413C14.7491 4.96433 15.1556 4.7959 15.5793 4.7959H23.0895C23.5133 4.7959 23.9197 4.96433 24.2194 5.26413C24.519 5.56393 24.6874 5.97055 24.6874 6.39454C24.6874 6.81853 24.519 7.22515 24.2194 7.52495C23.9197 7.82476 23.5133 7.99318 23.0895 7.99318Z" fill="#1A1A1A"/>
<path d="M36.32 7.99318H28.762C28.3382 7.99318 27.9317 7.82476 27.6321 7.52495C27.3324 7.22515 27.1641 6.81853 27.1641 6.39454C27.1641 5.97055 27.3324 5.56393 27.6321 5.26413C27.9317 4.96433 28.3382 4.7959 28.762 4.7959H36.2721C36.6959 4.7959 37.1023 4.96433 37.402 5.26413C37.7016 5.56393 37.87 5.97055 37.87 6.39454C37.87 6.81853 37.7016 7.22515 37.402 7.52495C37.1023 7.82476 36.6959 7.99318 36.2721 7.99318H36.32Z" fill="#1A1A1A"/>
<path d="M69.9565 7.99318H67.304C66.8802 7.99318 66.4737 7.82476 66.1741 7.52495C65.8744 7.22515 65.7061 6.81853 65.7061 6.39454C65.7061 5.97055 65.8744 5.56393 66.1741 5.26413C66.4737 4.96433 66.8802 4.7959 67.304 4.7959H69.9565C70.3803 4.7959 70.7867 4.96433 71.0864 5.26413C71.386 5.56393 71.5544 5.97055 71.5544 6.39454C71.5544 6.81853 71.386 7.22515 71.0864 7.52495C70.7867 7.82476 70.3803 7.99318 69.9565 7.99318Z" fill="#1A1A1A"/>
<path d="M33.3958 34.019L29.3052 29.9264H37.5024L41.5451 25.8019H25.7099C25.1734 25.786 24.6448 25.9343 24.1947 26.2269C23.7447 26.5196 23.3947 26.9428 23.1914 27.4398C22.9882 27.9368 22.9414 28.4841 23.0574 29.0084C23.1734 29.5328 23.4465 30.0092 23.8404 30.3741L30.4877 37.0244L33.3958 34.019Z" fill="#0ABF04"/>
<path d="M51.9639 28.7756L56.0705 32.8681H47.9372L43.8306 36.9926H59.8096C60.3312 36.9915 60.8407 36.8357 61.2738 36.5448C61.7069 36.2539 62.0439 35.841 62.2424 35.3583C62.4408 34.8757 62.4917 34.345 62.3886 33.8335C62.2855 33.3219 62.033 32.8524 61.6631 32.4845L55.0318 25.8501L51.9639 28.7756Z" fill="#0ABF04"/>
<path d="M48.6688 22.6266L33.9351 37.3672L36.7033 40.1367L51.437 25.3961L48.6688 22.6266Z" fill="#0ABF04"/>
</svg>
