<svg width="78" height="65" viewBox="0 0 78 65" fill="none" xmlns="http://www.w3.org/2000/svg">
<path d="M69.8501 46.4184C69.4094 46.4247 68.981 46.2735 68.6435 45.9926L58.3297 37.8042H55.2058V34.5944H59.4867L68.4782 41.7346V34.5944H74.693V3.47871H24.5454V10.2259H21.2397V2.52886C21.2441 1.91342 21.4927 1.32442 21.932 0.889229C22.3712 0.454041 22.9657 0.207658 23.5868 0.203369L75.6682 0.203369C76.2878 0.207693 76.8805 0.454606 77.3171 0.890252C77.7537 1.3259 77.9987 1.91493 77.9987 2.52886V35.4787C78.0075 35.7882 77.9538 36.0963 77.8409 36.385C77.7279 36.6737 77.5579 36.9371 77.3408 37.1598C77.1238 37.3825 76.864 37.56 76.5768 37.6819C76.2895 37.8038 75.9806 37.8677 75.6682 37.8697H71.784V44.5678C71.7881 44.9301 71.6877 45.286 71.4944 45.5936C71.3011 45.9012 71.0231 46.1476 70.6931 46.3037C70.4242 46.4035 70.1362 46.4426 69.8501 46.4184Z" fill="#1A1A1A"/>
<path d="M8.24861 54.8198C7.9614 54.8192 7.67833 54.7519 7.42218 54.6232C7.10516 54.4753 6.83467 54.2448 6.63962 53.9563C6.44457 53.6679 6.33228 53.3323 6.31477 52.9856V46.2711H2.4471C2.13246 46.2691 1.8214 46.2048 1.53217 46.0821C1.24293 45.9593 0.981342 45.7806 0.762736 45.5564C0.544131 45.3321 0.37291 45.0669 0.259114 44.7763C0.145319 44.4856 0.0912393 44.1754 0.100047 43.8638V10.9139C0.104376 10.2984 0.353044 9.70943 0.792266 9.27424C1.23149 8.83905 1.82596 8.59267 2.4471 8.58838H54.5285C55.1481 8.5927 55.7408 8.83962 56.1774 9.27526C56.614 9.71091 56.859 10.2999 56.859 10.9139V43.8638C56.859 44.4777 56.614 45.0667 56.1774 45.5024C55.7408 45.938 55.1481 46.1849 54.5285 46.1892H19.8186L9.50478 54.3776C9.15291 54.6691 8.70723 54.826 8.24861 54.8198ZM3.40575 42.9139H9.62047V50.0541L18.612 42.9139H53.5533V11.7982H3.40575V42.9139Z" fill="#1A1A1A"/>
<path d="M4.23221 60.928H1.75293V64.2033H4.23221V60.928Z" fill="#0ABF04"/>
<path d="M69.2386 64.2033H64.561V60.928H69.2056L69.2386 64.2033ZM59.9496 64.2033H55.3051V60.928H59.9496V64.2033ZM50.6606 64.2033H46.016V60.928H50.6606V64.2033ZM41.3715 64.2033H36.727V60.928H41.4211L41.3715 64.2033ZM32.0825 64.2033H27.438V60.928H32.0825V64.2033ZM22.81 64.2033H18.1655V60.928H22.81V64.2033ZM13.521 64.2033H8.87646V60.928H13.521V64.2033Z" fill="#0ABF04"/>
<path d="M76.346 60.928H73.8667V64.2033H76.346V60.928Z" fill="#0ABF04"/>
</svg>
