<svg width="49" height="85" viewBox="0 0 49 85" fill="none" xmlns="http://www.w3.org/2000/svg">
<path d="M24.6649 84.9138C20.9798 84.9138 17.4457 83.4499 14.84 80.8442C12.2343 78.2385 10.7704 74.7044 10.7704 71.0194V61.1491C6.51068 58.1916 3.3066 53.9511 1.62503 49.0455C-0.0565403 44.1399 -0.127732 38.8255 1.42183 33.8766C2.97138 28.9278 6.06072 24.603 10.2397 21.5324C14.4187 18.4618 19.4691 16.8059 24.6549 16.8059C29.8407 16.8059 34.891 18.4618 39.07 21.5324C43.249 24.603 46.3383 28.9278 47.8879 33.8766C49.4375 38.8255 49.3663 44.1399 47.6847 49.0455C46.0031 53.9511 42.7991 58.1916 38.5393 61.1491V71.0194C38.5393 74.7009 37.0782 78.232 34.4768 80.8371C31.8754 83.4423 28.3464 84.9085 24.6649 84.9138ZM24.6649 20.8472C20.2574 20.8459 15.9689 22.2775 12.4461 24.9263C8.92336 27.5751 6.35727 31.2975 5.13481 35.5321C3.91234 39.7666 4.09977 44.2839 5.66883 48.4026C7.2379 52.5214 10.1035 56.0183 13.8336 58.3662L14.7746 58.9668V70.9793C14.7145 72.3142 14.9255 73.6475 15.3949 74.8986C15.8644 76.1497 16.5824 77.2927 17.5058 78.2586C18.4292 79.2245 19.5388 79.9932 20.7675 80.5185C21.9962 81.0437 23.3186 81.3145 24.6549 81.3145C25.9911 81.3145 27.3135 81.0437 28.5423 80.5185C29.771 79.9932 30.8805 79.2245 31.8039 78.2586C32.7273 77.2927 33.4454 76.1497 33.9148 74.8986C34.3842 73.6475 34.5952 72.3142 34.5351 70.9793V58.9668L35.4761 58.3662C39.2141 56.023 42.0881 52.527 43.6638 48.4062C45.2395 44.2855 45.4313 39.7638 44.2104 35.5244C42.9894 31.285 40.422 27.5581 36.8959 24.9066C33.3698 22.2552 29.0766 20.8233 24.6649 20.8272V20.8472Z" fill="#1A1A1A"/>
<path d="M24.665 52.4401C22.81 52.4401 21.0307 51.7046 19.7172 50.3948C18.4036 49.085 17.663 47.3079 17.6577 45.4529H21.6619C21.6619 46.2494 21.9783 47.0132 22.5415 47.5764C23.1047 48.1396 23.8685 48.456 24.665 48.456C25.4615 48.456 26.2253 48.1396 26.7885 47.5764C27.3517 47.0132 27.6681 46.2494 27.6681 45.4529H31.6723C31.667 47.3079 30.9264 49.085 29.6128 50.3948C28.2993 51.7046 26.52 52.4401 24.665 52.4401Z" fill="#0ABF04"/>
<path d="M26.6672 51.5591H22.6631V66.0341H26.6672V51.5591Z" fill="#0ABF04"/>
<path d="M24.6652 13.4598C24.1342 13.4598 23.6249 13.2489 23.2495 12.8734C22.874 12.498 22.6631 11.9887 22.6631 11.4578V2.08802C22.6631 1.55703 22.874 1.0478 23.2495 0.672333C23.6249 0.29687 24.1342 0.0859375 24.6652 0.0859375C25.1962 0.0859375 25.7054 0.29687 26.0808 0.672333C26.4563 1.0478 26.6672 1.55703 26.6672 2.08802V11.4578C26.6672 11.9887 26.4563 12.498 26.0808 12.8734C25.7054 13.2489 25.1962 13.4598 24.6652 13.4598Z" fill="#1A1A1A"/>
<path d="M35.5958 15.1618C35.3274 15.1613 35.0619 15.1068 34.815 15.0017C34.3268 14.7943 33.9408 14.4016 33.7418 13.9098C33.5429 13.4181 33.5472 12.8675 33.7539 12.3789L36.5969 5.67198C36.8039 5.17285 37.2008 4.77643 37.7002 4.56993C37.9474 4.46768 38.2124 4.41513 38.48 4.41528C38.7476 4.41544 39.0125 4.46829 39.2596 4.57083C39.5068 4.67337 39.7313 4.82358 39.9204 5.01289C40.1095 5.2022 40.2594 5.4269 40.3617 5.67416C40.4639 5.92142 40.5165 6.1864 40.5163 6.45397C40.5162 6.72154 40.4633 6.98646 40.3608 7.2336L37.4377 13.9406C37.2845 14.3024 37.0281 14.6112 36.7005 14.8284C36.373 15.0455 35.9888 15.1615 35.5958 15.1618Z" fill="#1A1A1A"/>
<path d="M13.7137 15.1615C13.3207 15.1611 12.9365 15.0452 12.609 14.828C12.2814 14.6108 12.025 14.3021 11.8718 13.9402L9.02883 7.23323C8.84544 6.74925 8.85659 6.21306 9.05996 5.73713C9.26332 5.2612 9.6431 4.88251 10.1196 4.68051C10.5961 4.47851 11.1323 4.46889 11.6158 4.65367C12.0992 4.83845 12.4924 5.20328 12.7127 5.67161L15.5556 12.3786C15.7623 12.8671 15.7666 13.4177 15.5677 13.9095C15.3687 14.4012 14.9827 14.7939 14.4945 15.0013C14.2476 15.1065 13.9821 15.1609 13.7137 15.1615Z" fill="#1A1A1A"/>
<path d="M36.5572 64.7334H12.7725V68.7376H36.5572V64.7334Z" fill="#1A1A1A"/>
</svg>
