<svg width="82" height="83" viewBox="0 0 82 83" fill="none" xmlns="http://www.w3.org/2000/svg">
<g filter="url(#filter0_d_592_2136)">
<rect x="5.21484" y="3.91638" width="71.5756" height="71.5756" rx="10" fill="#0ABF04"/>
</g>
<path d="M61.0442 52.9177V50.2162H58.9507C58.7889 49.4817 58.4889 48.7813 58.0655 48.1489L59.535 46.72L57.5344 44.8091L56.0516 46.2253C55.3878 45.8242 54.6552 45.538 53.8873 45.3798V43.3801H51.0591V45.3756C50.2912 45.5337 49.5585 45.82 48.8947 46.2211L47.412 44.8048L45.407 46.72L46.8897 48.1362C46.4663 48.7686 46.1664 49.469 46.0045 50.2035H43.8977V52.905H45.9912C46.1539 53.6406 46.4537 54.3423 46.8764 54.9766L45.407 56.4013L47.4076 58.3122L48.8903 56.9001C49.554 57.3014 50.2867 57.5877 51.0546 57.7457V59.7453H53.8873V57.7584C54.6552 57.6004 55.3879 57.3141 56.0516 56.9128L57.5344 58.3249L59.535 56.414L58.0522 54.9892C58.4749 54.355 58.7748 53.6533 58.9374 52.9177H61.0442ZM52.471 55.598C51.6339 55.598 50.8157 55.3609 50.1197 54.9166C49.4238 54.4723 48.8815 53.8408 48.5613 53.1021C48.2412 52.3633 48.1577 51.5505 48.3213 50.7664C48.4849 49.9822 48.8884 49.2621 49.4806 48.697C50.0728 48.132 50.8271 47.7474 51.6482 47.5919C52.4693 47.4364 53.3202 47.5171 54.0933 47.8236C54.8664 48.1302 55.5269 48.6489 55.9913 49.3141C56.4557 49.9793 56.7032 50.7611 56.7023 51.5606C56.7011 52.6318 56.2548 53.6587 55.4614 54.4157C54.668 55.1728 53.5924 55.598 52.471 55.598Z" fill="#1A1A1A"/>
<path d="M39.2902 21.9121C49.6206 21.9121 55.2594 24.529 55.2594 25.8734C55.2594 27.2178 49.6206 29.8305 39.2902 29.8305C28.9598 29.8305 23.3166 27.2136 23.3166 25.8734C23.3166 24.5333 28.9554 21.9121 39.2902 21.9121ZM42.3884 56.9466C32.0536 56.9466 23.3166 54.3297 23.3166 52.9896V47.0709C26.6361 49.0621 36.0857 50.1021 42.3884 50.1021V47.8361C32.0536 47.8361 23.3166 45.2191 23.3166 43.8748V37.9561C26.6361 39.9557 32.9875 40.9704 39.2902 40.9704C45.5929 40.9704 51.9443 39.9557 55.2594 37.973V42.3909H57.614V25.8734C57.614 21.7768 48.4034 19.663 39.2902 19.663C30.177 19.663 20.9619 21.7768 20.9619 25.8734V52.9896C20.9619 57.065 33.2796 59.1957 42.3884 59.1957V56.9466ZM39.2902 38.7213C28.9554 38.7213 23.3166 36.1086 23.3166 34.7642V29.0822C26.6361 31.0608 32.9875 32.0796 39.2902 32.0796C45.5929 32.0796 51.9443 31.0777 55.2594 29.0822V34.7642C55.2594 36.1086 49.6206 38.7213 39.2902 38.7213Z" fill="#1A1A1A"/>
<defs>
<filter id="filter0_d_592_2136" x="0.214844" y="0.916382" width="81.5752" height="81.5756" filterUnits="userSpaceOnUse" color-interpolation-filters="sRGB">
<feFlood flood-opacity="0" result="BackgroundImageFix"/>
<feColorMatrix in="SourceAlpha" type="matrix" values="0 0 0 0 0 0 0 0 0 0 0 0 0 0 0 0 0 0 127 0" result="hardAlpha"/>
<feOffset dy="2"/>
<feGaussianBlur stdDeviation="2.5"/>
<feComposite in2="hardAlpha" operator="out"/>
<feColorMatrix type="matrix" values="0 0 0 0 0.0901961 0 0 0 0 0.74902 0 0 0 0 0.121569 0 0 0 0.4 0"/>
<feBlend mode="normal" in2="BackgroundImageFix" result="effect1_dropShadow_592_2136"/>
<feBlend mode="normal" in="SourceGraphic" in2="effect1_dropShadow_592_2136" result="shape"/>
</filter>
</defs>
</svg>
