<svg width="83" height="82" viewBox="0 0 83 82" fill="none" xmlns="http://www.w3.org/2000/svg">
<g filter="url(#filter0_d_337_304)">
<rect x="5.61719" y="3.13086" width="71.466" height="71.466" rx="10" fill="#0ABF04"/>
</g>
<path d="M41.3297 52.9217C38.3174 52.9217 35.891 52.3777 34.0504 51.2896C32.2098 50.2015 30.8772 48.6071 30.0525 46.5066C29.229 44.4002 28.8173 41.8547 28.8173 38.8699C28.8173 35.8851 29.229 33.347 30.0525 31.2556C30.8021 29.2511 32.2114 27.5613 34.0487 26.464C35.8882 25.3621 38.3146 24.8112 41.328 24.8112C44.369 24.8112 46.8029 25.3621 48.6297 26.464C50.4565 27.5658 51.7886 29.163 52.6258 31.2556C53.4631 33.3481 53.8811 35.8862 53.8799 38.8699C53.8788 41.8535 53.4608 44.3991 52.6258 46.5066C51.7886 48.6129 50.4565 50.2095 48.6297 51.2964C46.8029 52.3834 44.3695 52.9251 41.3297 52.9217ZM41.3297 47.1474C43.4498 47.1474 44.9216 46.443 45.7451 45.0342C46.5686 43.6254 46.9798 41.5684 46.9786 38.863C46.9786 36.1588 46.5675 34.1018 45.7451 32.6918C44.9227 31.2819 43.4509 30.5775 41.3297 30.5786C39.2097 30.5786 37.7385 31.2831 36.9161 32.6918C36.0937 34.1006 35.682 36.1577 35.6808 38.863C35.6808 41.5695 36.0926 43.6266 36.9161 45.0342C37.7396 46.4418 39.2108 47.1462 41.3297 47.1474Z" fill="#1A1A1A"/>
<path d="M30.5787 24.5718L27.0557 28.0948L52.1189 53.158L55.6419 49.635L30.5787 24.5718Z" fill="#1A1A1A"/>
<defs>
<filter id="filter0_d_337_304" x="0.617188" y="0.130859" width="81.4658" height="81.4659" filterUnits="userSpaceOnUse" color-interpolation-filters="sRGB">
<feFlood flood-opacity="0" result="BackgroundImageFix"/>
<feColorMatrix in="SourceAlpha" type="matrix" values="0 0 0 0 0 0 0 0 0 0 0 0 0 0 0 0 0 0 127 0" result="hardAlpha"/>
<feOffset dy="2"/>
<feGaussianBlur stdDeviation="2.5"/>
<feComposite in2="hardAlpha" operator="out"/>
<feColorMatrix type="matrix" values="0 0 0 0 0.0392157 0 0 0 0 0.74902 0 0 0 0 0.0156863 0 0 0 0.4 0"/>
<feBlend mode="normal" in2="BackgroundImageFix" result="effect1_dropShadow_337_304"/>
<feBlend mode="normal" in="SourceGraphic" in2="effect1_dropShadow_337_304" result="shape"/>
</filter>
</defs>
</svg>
