<?xml version="1.0" encoding="UTF-8"?>
<svg id="Camada_2" data-name="Camada 2" xmlns="http://www.w3.org/2000/svg" viewBox="0 0 658.02 553">
  <defs>
    <style>
      .cls-1 {
        fill: #12592b;
      }

      .cls-2 {
        fill: #0abf04;
      }
    </style>
  </defs>
  <g id="Camada_1-2" data-name="Camada 1">
    <g>
      <circle class="cls-1" cx="218.5" cy="68.3" r="68.3"/>
      <path class="cls-1" d="M0,302.44s47.56-78.82,75-96.89c25.94-17.08,49.78-18.56,49.78-18.56,0,0,51.56-5.44,76.89,30.56s11.11,80.44,11.11,80.44c0,0-11.56,35.11-31.11,75.11s-55.11,102.67-59.11,112.44c-4,9.78-13.78,28.89-2.67,36.44s33.78-11.11,33.78-11.11c0,0,23.11-13.33,68-91.11l8.89,4.89s-52.44,100.44-96.89,113.33c-44.44,12.89-88.56,11.56-111.11-18.67S1.22,445.56,13.22,419.33,96.33,250.89,96.33,250.89c0,0,15.52-31.3,9.09-38.94-6.43-7.64-18.29-.6-18.29-.6,0,0-33.56,22.31-68.93,80.99l-9.04,15.47-9.16-5.37Z"/>
      <path class="cls-2" d="M558.78,236.67s47.77-24.15,57.26-74.52c9.48-50.37-5.61-79.44-40.89-108.44-32.45-26.68-91.79-33.63-128.79-33.63-30.04,0-82.77,8.15-118.32,38.37-35.56,30.22-53.93,64.52-55.7,128.56-1.78,64.04,64,109.67,64,109.67,0,0-78.22,39.11-75.26,107.26,2.96,68.15,50.37,103.11,50.37,103.11,0,0,39.11,29.56,82.37,39.96,43.26,10.41,134.84,12.41,200.99-37.47,64.88-48.92,63.18-123.64,63.18-123.64,0,0,4.83-90-99.2-149.22Zm-19.93,233.01c-33.43,56.48-117.2,39.58-117.2,39.58,0,0-88.76-16.14-97.6-89.53-8.84-73.39,48.03-100.67,48.03-100.67,0,0,55.24,20.23,81.84,27.67,24.89,6.96,54.95,19.51,66.09,29.97,5.6,5.26,52.26,36.5,18.83,92.99Zm-13.67-248.75c-3.34-1.73-83.47-27.51-83.47-27.51,0,0-91.51-24.24-75.68-80.17,18.33-64.74,95.99-53.11,109.23-52.19,13.24,.92,66.49,6.46,79.72,68.64,13.24,62.18-29.81,91.23-29.81,91.23Z"/>
    </g>
  </g>
</svg>