<svg width="70" height="83" viewBox="0 0 70 83" fill="none" xmlns="http://www.w3.org/2000/svg">
<path d="M26.0824 51.1629H10.9444C10.2005 51.1575 9.48883 50.8551 8.96465 50.3216C8.44048 49.7881 8.14632 49.0667 8.14634 48.3149V8.13718C8.13281 7.75737 8.19519 7.3787 8.32974 7.0238C8.46429 6.6689 8.66825 6.34505 8.92943 6.07161C9.19062 5.79817 9.50368 5.58074 9.84989 5.43231C10.1961 5.28389 10.5684 5.20752 10.9444 5.20776H43.6762C44.0515 5.21032 44.4225 5.28859 44.7674 5.43799C45.1124 5.58738 45.4243 5.8049 45.6849 6.07776C45.9456 6.35063 46.1497 6.67335 46.2852 7.02699C46.4208 7.38064 46.4851 7.75808 46.4743 8.13718V15.2573H42.4483V9.27639H12.2529V47.0943H26.1629L26.0824 51.1629Z" fill="#0ABF04"/>
<path d="M9.37404 82.9999H3.79796C3.05586 82.9999 2.34415 82.702 1.8194 82.1717C1.29466 81.6414 0.999858 80.9222 0.999858 80.1722V8.13718C0.98633 7.75737 1.0487 7.3787 1.18325 7.0238C1.3178 6.6689 1.52176 6.34505 1.78295 6.07161C2.04414 5.79817 2.35719 5.58074 2.70341 5.43231C3.04962 5.28389 3.42189 5.20752 3.79796 5.20776H9.37404C9.75012 5.20752 10.1224 5.28389 10.4686 5.43231C10.8148 5.58074 11.1279 5.79817 11.3891 6.07161C11.6502 6.34505 11.8542 6.6689 11.9888 7.0238C12.1233 7.3787 12.1857 7.75737 12.1722 8.13718V80.1722C12.1722 80.9222 11.8774 81.6414 11.3526 82.1717C10.8279 82.702 10.1161 82.9999 9.37404 82.9999ZM5.02591 78.9313H8.1461V9.27639H5.02591V78.9313Z" fill="#1A1A1A"/>
<path d="M12.1723 9.27647H1V2.8277C1 2.07774 1.2948 1.35851 1.81955 0.828213C2.34429 0.297917 3.056 0 3.79811 0L9.37419 0C10.1163 0 10.828 0.297917 11.3527 0.828213C11.8775 1.35851 12.1723 2.07774 12.1723 2.8277V9.27647ZM5.02605 5.20784H8.14624V4.06863H5.02605V5.20784Z" fill="#1A1A1A"/>
<path d="M66.3628 58.9952H24.3711V56.8592V13.2231H26.3841H66.3628C66.866 13.2252 67.3582 13.3716 67.7823 13.6453C68.2064 13.919 68.5448 14.3087 68.7583 14.7692C68.9757 15.2288 69.0572 15.742 68.9929 16.2473C68.9287 16.7525 68.7214 17.2282 68.396 17.6173L49.856 36.2109L68.255 54.6418C68.6274 55.0309 68.8747 55.5247 68.9645 56.0583C69.0543 56.5919 68.9825 57.1406 68.7583 57.6322C68.5217 58.0601 68.1728 58.4137 67.7502 58.6541C67.3276 58.8946 66.8475 59.0126 66.3628 58.9952ZM28.2965 54.9266H63.0212L44.139 36.0278L63.001 17.1087H28.2965V54.9266Z" fill="#0ABF04"/>
<path d="M25.74 17.0271L24.2705 13.223L43.7365 6.14355L45.1858 9.92738L25.74 17.0271Z" fill="#0ABF04"/>
</svg>
