<svg width="18" height="22" viewBox="0 0 18 22" fill="none" xmlns="http://www.w3.org/2000/svg">
<mask id="path-1-inside-1_592_2477" fill="white">
<path d="M17.1045 12.7276L2.30504 0.72535C2.13116 0.574672 1.91458 0.481968 1.68547 0.460159C1.45637 0.43835 1.22617 0.488524 1.02696 0.603686C0.827742 0.718847 0.669442 0.893259 0.574122 1.10261C0.478802 1.31196 0.451212 1.54582 0.495197 1.77158L3.53618 20.5596C3.56706 20.7921 3.67119 21.0089 3.8335 21.1783C3.99581 21.3478 4.20787 21.4613 4.43899 21.5023C4.67011 21.5433 4.90829 21.5098 5.11907 21.4066C5.32985 21.3033 5.50229 21.1357 5.61142 20.928L8.89199 15.2695C8.99066 15.1016 9.13193 14.9628 9.30151 14.8671C9.4711 14.7714 9.66297 14.7221 9.85773 14.7243H16.4041C16.6413 14.7346 16.8756 14.6684 17.0722 14.5354C17.2688 14.4024 17.4174 14.2097 17.4959 13.9857C17.5745 13.7618 17.5788 13.5186 17.5083 13.292C17.4378 13.0654 17.2962 12.8675 17.1045 12.7276Z"/>
<path d="M4.65305 22C4.55162 21.9991 4.45047 21.9893 4.35079 21.9705C4.0249 21.9128 3.72525 21.7546 3.49388 21.5181C3.26251 21.2816 3.11102 20.9786 3.06068 20.6517L0.0196987 1.84895C-0.03093 1.52949 0.0165771 1.2022 0.155947 0.910287C0.295317 0.618377 0.519995 0.375577 0.800315 0.213946C1.08063 0.0523164 1.40341 -0.0205424 1.72603 0.00499066C2.04864 0.0305237 2.35592 0.153248 2.6073 0.356958L17.4104 12.3518C17.6663 12.5605 17.8514 12.8431 17.9405 13.1609C18.0296 13.4788 18.0184 13.8164 17.9083 14.1276C17.7982 14.4388 17.5946 14.7084 17.3254 14.8996C17.0561 15.0908 16.7344 15.1942 16.4041 15.1958L9.86142 15.2216C9.74962 15.2217 9.63979 15.2509 9.5428 15.3065C9.44582 15.3621 9.36505 15.442 9.30851 15.5384L6.02794 21.2006C5.89016 21.4436 5.69025 21.6457 5.44868 21.7861C5.2071 21.9266 4.93253 22.0004 4.65305 22ZM1.60838 0.950069C1.49329 0.951244 1.3804 0.98167 1.28032 1.03848C1.1671 1.10247 1.07631 1.1997 1.02027 1.317C0.964219 1.43431 0.945627 1.566 0.96701 1.69422L4.01168 20.5006C4.03418 20.6297 4.09569 20.7487 4.18792 20.8417C4.28016 20.9348 4.39869 20.9973 4.52757 21.021C4.65646 21.0447 4.7895 21.0283 4.90881 20.9742C5.02811 20.92 5.12795 20.8306 5.19489 20.718L8.47547 15.0558C8.61641 14.8147 8.81753 14.6144 9.05917 14.4742C9.30081 14.3341 9.57469 14.2591 9.85404 14.2564L16.4004 14.2343C16.5318 14.2328 16.6595 14.191 16.7663 14.1146C16.8732 14.0383 16.9539 13.9309 16.9978 13.8072C17.0416 13.6834 17.0463 13.5492 17.0114 13.4227C16.9764 13.2961 16.9034 13.1834 16.8022 13.0996L2.00279 1.09374C1.89206 1.00142 1.75258 0.950606 1.60838 0.950069Z"/>
</mask>
<path d="M17.1045 12.7276L2.30504 0.72535C2.13116 0.574672 1.91458 0.481968 1.68547 0.460159C1.45637 0.43835 1.22617 0.488524 1.02696 0.603686C0.827742 0.718847 0.669442 0.893259 0.574122 1.10261C0.478802 1.31196 0.451212 1.54582 0.495197 1.77158L3.53618 20.5596C3.56706 20.7921 3.67119 21.0089 3.8335 21.1783C3.99581 21.3478 4.20787 21.4613 4.43899 21.5023C4.67011 21.5433 4.90829 21.5098 5.11907 21.4066C5.32985 21.3033 5.50229 21.1357 5.61142 20.928L8.89199 15.2695C8.99066 15.1016 9.13193 14.9628 9.30151 14.8671C9.4711 14.7714 9.66297 14.7221 9.85773 14.7243H16.4041C16.6413 14.7346 16.8756 14.6684 17.0722 14.5354C17.2688 14.4024 17.4174 14.2097 17.4959 13.9857C17.5745 13.7618 17.5788 13.5186 17.5083 13.292C17.4378 13.0654 17.2962 12.8675 17.1045 12.7276Z" fill="white"/>
<path d="M4.65305 22C4.55162 21.9991 4.45047 21.9893 4.35079 21.9705C4.0249 21.9128 3.72525 21.7546 3.49388 21.5181C3.26251 21.2816 3.11102 20.9786 3.06068 20.6517L0.0196987 1.84895C-0.03093 1.52949 0.0165771 1.2022 0.155947 0.910287C0.295317 0.618377 0.519995 0.375577 0.800315 0.213946C1.08063 0.0523164 1.40341 -0.0205424 1.72603 0.00499066C2.04864 0.0305237 2.35592 0.153248 2.6073 0.356958L17.4104 12.3518C17.6663 12.5605 17.8514 12.8431 17.9405 13.1609C18.0296 13.4788 18.0184 13.8164 17.9083 14.1276C17.7982 14.4388 17.5946 14.7084 17.3254 14.8996C17.0561 15.0908 16.7344 15.1942 16.4041 15.1958L9.86142 15.2216C9.74962 15.2217 9.63979 15.2509 9.5428 15.3065C9.44582 15.3621 9.36505 15.442 9.30851 15.5384L6.02794 21.2006C5.89016 21.4436 5.69025 21.6457 5.44868 21.7861C5.2071 21.9266 4.93253 22.0004 4.65305 22ZM1.60838 0.950069C1.49329 0.951244 1.3804 0.98167 1.28032 1.03848C1.1671 1.10247 1.07631 1.1997 1.02027 1.317C0.964219 1.43431 0.945627 1.566 0.96701 1.69422L4.01168 20.5006C4.03418 20.6297 4.09569 20.7487 4.18792 20.8417C4.28016 20.9348 4.39869 20.9973 4.52757 21.021C4.65646 21.0447 4.7895 21.0283 4.90881 20.9742C5.02811 20.92 5.12795 20.8306 5.19489 20.718L8.47547 15.0558C8.61641 14.8147 8.81753 14.6144 9.05917 14.4742C9.30081 14.3341 9.57469 14.2591 9.85404 14.2564L16.4004 14.2343C16.5318 14.2328 16.6595 14.191 16.7663 14.1146C16.8732 14.0383 16.9539 13.9309 16.9978 13.8072C17.0416 13.6834 17.0463 13.5492 17.0114 13.4227C16.9764 13.2961 16.9034 13.1834 16.8022 13.0996L2.00279 1.09374C1.89206 1.00142 1.75258 0.950606 1.60838 0.950069Z" fill="#1D1D1B"/>
<path d="M17.1045 12.7276L16.4746 13.5043L16.4944 13.5203L16.515 13.5353L17.1045 12.7276ZM2.30504 0.72535L1.65015 1.48108L1.66248 1.49176L1.67515 1.50204L2.30504 0.72535ZM0.495197 1.77158L1.48235 1.61181L1.4798 1.59603L1.47674 1.58035L0.495197 1.77158ZM3.53618 20.5596L4.52747 20.4279L4.5256 20.4138L4.52333 20.3998L3.53618 20.5596ZM5.61142 20.928L4.74629 20.4264L4.73585 20.4444L4.72617 20.4629L5.61142 20.928ZM8.89199 15.2695L8.02992 14.7626L8.02687 14.7679L8.89199 15.2695ZM9.85773 14.7243L9.84658 15.7243H9.85773V14.7243ZM16.4041 14.7243L16.4477 13.7252L16.4259 13.7243H16.4041V14.7243ZM4.65305 22L4.64451 23L4.65159 23L4.65305 22ZM4.35079 21.9705L4.53559 20.9877L4.5251 20.9858L4.35079 21.9705ZM3.06068 20.6517L4.04906 20.4995L4.04785 20.492L3.06068 20.6517ZM0.0196987 1.84895L-0.967979 2.00548L-0.967474 2.0086L0.0196987 1.84895ZM2.6073 0.356958L1.97769 1.13387L1.97774 1.13391L2.6073 0.356958ZM17.4104 12.3518L18.0425 11.5769L18.04 11.5749L17.4104 12.3518ZM16.4041 15.1958L16.4081 16.1958L16.4088 16.1958L16.4041 15.1958ZM9.86142 15.2216L9.86203 16.2216L9.86536 16.2216L9.86142 15.2216ZM9.30851 15.5384L8.44594 15.0324L8.44325 15.0371L9.30851 15.5384ZM6.02794 21.2006L5.16264 20.6992L5.15802 20.7074L6.02794 21.2006ZM1.60838 0.950069L1.6121 -0.0500208L1.59817 -0.0498785L1.60838 0.950069ZM1.28032 1.03848L1.77232 1.90908L1.77402 1.90812L1.28032 1.03848ZM0.96701 1.69422L1.95417 1.53441L1.95339 1.52972L0.96701 1.69422ZM4.01168 20.5006L3.02446 20.6605L3.02655 20.6725L4.01168 20.5006ZM5.19489 20.718L6.05451 21.2291L6.06016 21.2193L5.19489 20.718ZM8.47547 15.0558L7.61219 14.5511L7.6102 14.5545L8.47547 15.0558ZM9.85404 14.2564L9.85067 13.2564L9.84453 13.2564L9.85404 14.2564ZM16.4004 14.2343L16.4038 15.2343L16.4118 15.2342L16.4004 14.2343ZM16.8022 13.0996L17.4399 12.3292L17.4322 12.3231L16.8022 13.0996ZM2.00279 1.09374L1.36232 1.86184L1.37278 1.87033L2.00279 1.09374ZM17.7344 11.9509L2.93493 -0.0513369L1.67515 1.50204L16.4746 13.5043L17.7344 11.9509ZM2.95993 -0.0303772C2.62879 -0.317332 2.21639 -0.493822 1.78024 -0.53534L1.59071 1.45566C1.61276 1.45776 1.63354 1.46668 1.65015 1.48108L2.95993 -0.0303772ZM1.78024 -0.53534C1.34409 -0.576859 0.905813 -0.481349 0.526483 -0.262066L1.52743 1.46944C1.54653 1.4584 1.56866 1.45356 1.59071 1.45566L1.78024 -0.53534ZM0.526483 -0.262066C0.147145 -0.0427789 -0.154386 0.289391 -0.335981 0.688228L1.48423 1.51699C1.49327 1.49713 1.50834 1.48047 1.52743 1.46944L0.526483 -0.262066ZM-0.335981 0.688228C-0.51758 1.08707 -0.570156 1.53265 -0.486348 1.96281L1.47674 1.58035C1.47258 1.55899 1.47518 1.53685 1.48423 1.51699L-0.335981 0.688228ZM-0.491956 1.93136L2.54902 20.7194L4.52333 20.3998L1.48235 1.61181L-0.491956 1.93136ZM2.54488 20.6912C2.60373 21.1344 2.80213 21.5472 3.11127 21.87L4.55574 20.4867C4.54026 20.4705 4.5304 20.4499 4.52747 20.4279L2.54488 20.6912ZM3.11127 21.87C3.42039 22.1928 3.8242 22.4088 4.2642 22.4869L4.61377 20.5177C4.59154 20.5138 4.57122 20.5029 4.55574 20.4867L3.11127 21.87ZM4.2642 22.4869C4.7042 22.565 5.15767 22.5012 5.559 22.3046L4.67915 20.5085C4.65892 20.5184 4.63601 20.5217 4.61377 20.5177L4.2642 22.4869ZM5.559 22.3046C5.96033 22.108 6.28877 21.7888 6.49667 21.3931L4.72617 20.4629C4.7158 20.4826 4.69937 20.4986 4.67915 20.5085L5.559 22.3046ZM6.47654 21.4295L9.75711 15.771L8.02687 14.7679L4.74629 20.4264L6.47654 21.4295ZM9.75404 15.7763C9.76342 15.7603 9.77689 15.7471 9.79314 15.7379L8.80989 13.9963C8.48698 14.1786 8.2179 14.4429 8.02994 14.7627L9.75404 15.7763ZM9.79314 15.7379C9.80939 15.7287 9.82783 15.724 9.84658 15.7242L9.86888 13.7243C9.49811 13.7202 9.1328 13.814 8.80989 13.9963L9.79314 15.7379ZM9.85773 15.7243H16.4041V13.7243H9.85773V15.7243ZM16.3605 15.7233C16.8121 15.743 17.2581 15.6169 17.6325 15.3637L16.5119 13.7071C16.4931 13.7198 16.4706 13.7262 16.4477 13.7252L16.3605 15.7233ZM17.6325 15.3637C18.0069 15.1104 18.2899 14.7434 18.4396 14.3167L16.5523 13.6548C16.5448 13.676 16.5307 13.6943 16.5119 13.7071L17.6325 15.3637ZM18.4396 14.3167C18.5892 13.8901 18.5975 13.4266 18.4632 12.9949L16.5535 13.5891C16.5601 13.6105 16.5597 13.6335 16.5523 13.6548L18.4396 14.3167ZM18.4632 12.9949C18.3289 12.5632 18.0591 12.1863 17.694 11.9198L16.515 13.5353C16.5333 13.5487 16.5468 13.5676 16.5535 13.5891L18.4632 12.9949ZM4.66159 21C4.61931 20.9997 4.57714 20.9956 4.53558 20.9877L4.166 22.9533C4.32381 22.983 4.48393 22.9986 4.64451 23L4.66159 21ZM4.5251 20.9858C4.4047 20.9645 4.29408 20.9061 4.20873 20.8188L2.77903 22.2174C3.15641 22.6032 3.6451 22.8612 4.17648 22.9552L4.5251 20.9858ZM4.20873 20.8188C4.12338 20.7316 4.06757 20.6199 4.04903 20.4995L2.07233 20.8039C2.15448 21.3373 2.40163 21.8316 2.77903 22.2174L4.20873 20.8188ZM4.04785 20.492L1.00687 1.68929L-0.967474 2.0086L2.07351 20.8113L4.04785 20.492ZM1.00737 1.69242C0.988429 1.57289 1.0062 1.45041 1.05837 1.34114L-0.746475 0.479433C-0.973043 0.95398 -1.05029 1.48609 -0.967975 2.00548L1.00737 1.69242ZM1.05837 1.34114C1.11054 1.23186 1.1947 1.14087 1.29982 1.08026L0.300808 -0.652363C-0.154712 -0.389714 -0.51991 0.00489327 -0.746475 0.479433L1.05837 1.34114ZM1.29982 1.08026C1.40495 1.01964 1.52605 0.992291 1.64713 1.00187L1.80493 -0.991892C1.28077 -1.03338 0.756321 -0.915008 0.300808 -0.652363L1.29982 1.08026ZM1.64713 1.00187C1.76821 1.01146 1.88346 1.05751 1.97769 1.13387L3.2369 -0.419956C2.82839 -0.751015 2.32908 -0.950408 1.80493 -0.991892L1.64713 1.00187ZM1.97774 1.13391L16.7809 13.1288L18.04 11.5749L3.23686 -0.419995L1.97774 1.13391ZM16.7783 13.1267C16.8746 13.2052 16.9442 13.3115 16.9777 13.4309L18.9034 12.891C18.7587 12.3747 18.458 11.9158 18.0425 11.5769L16.7783 13.1267ZM16.9777 13.4309C17.0111 13.5503 17.0069 13.6771 16.9655 13.794L18.851 14.4611C19.0298 13.9557 19.0482 13.4073 18.9034 12.891L16.9777 13.4309ZM16.9655 13.794C16.9242 13.9109 16.8476 14.0123 16.7463 14.0843L17.9044 15.7149C18.3415 15.4045 18.6721 14.9666 18.851 14.4611L16.9655 13.794ZM16.7463 14.0843C16.645 14.1562 16.5238 14.1952 16.3994 14.1958L16.4088 16.1958C16.945 16.1933 17.4673 16.0253 17.9044 15.7149L16.7463 14.0843ZM16.4002 14.1958L9.85747 14.2216L9.86536 16.2216L16.4081 16.1958L16.4002 14.1958ZM9.8608 14.2216C9.57481 14.2218 9.2938 14.2966 9.04563 14.4388L10.04 16.1742C9.98577 16.2052 9.92444 16.2215 9.86203 16.2216L9.8608 14.2216ZM9.04563 14.4388C8.79746 14.581 8.59071 14.7857 8.44596 15.0324L10.1711 16.0444C10.1394 16.0984 10.0942 16.1431 10.04 16.1742L9.04563 14.4388ZM8.44325 15.0371L5.16267 20.6993L6.8932 21.7019L10.1738 16.0397L8.44325 15.0371ZM5.15802 20.7074C5.10764 20.7962 5.0345 20.8702 4.94603 20.9217L5.95132 22.6506C6.346 22.4212 6.67267 22.091 6.89785 21.6938L5.15802 20.7074ZM4.94603 20.9217C4.85755 20.9731 4.75695 21.0001 4.65451 21L4.65159 23C5.10811 23.0007 5.55665 22.8801 5.95132 22.6506L4.94603 20.9217ZM1.59817 -0.0498785C1.3135 -0.0469724 1.03423 0.0282853 0.786627 0.168849L1.77402 1.90812C1.72657 1.93506 1.67308 1.94946 1.61859 1.95002L1.59817 -0.0498785ZM0.78833 0.167884C0.496563 0.332768 0.262498 0.583405 0.117972 0.885886L1.92256 1.74812C1.89013 1.816 1.83765 1.87216 1.77232 1.90908L0.78833 0.167884ZM0.117972 0.885886C-0.0265582 1.18837 -0.0745187 1.52801 -0.0193675 1.85872L1.95339 1.52972C1.96577 1.60398 1.955 1.68024 1.92256 1.74812L0.117972 0.885886ZM-0.020137 1.85404L3.02453 20.6605L4.99882 20.3408L1.95416 1.53441L-0.020137 1.85404ZM3.02655 20.6725C3.08419 21.0029 3.2417 21.3077 3.47778 21.5458L4.89807 20.1377C4.94968 20.1897 4.98418 20.2564 4.9968 20.3288L3.02655 20.6725ZM3.47778 21.5458C3.71386 21.7839 4.01718 21.944 4.3469 22.0045L4.70825 20.0375C4.7802 20.0507 4.84645 20.0856 4.89807 20.1377L3.47778 21.5458ZM4.3469 22.0045C4.67662 22.0651 5.01699 22.0233 5.32225 21.8847L4.49537 20.0636C4.56202 20.0334 4.6363 20.0242 4.70825 20.0375L4.3469 22.0045ZM5.32225 21.8847C5.62751 21.7461 5.88307 21.5173 6.05445 21.229L4.33534 20.207C4.37284 20.1439 4.42872 20.0939 4.49537 20.0636L5.32225 21.8847ZM6.06016 21.2193L9.34073 15.5571L7.6102 14.5545L4.32963 20.2167L6.06016 21.2193ZM9.33874 15.5605C9.39232 15.4689 9.46882 15.3927 9.56081 15.3393L8.55753 13.6092C8.16625 13.8361 7.8405 14.1606 7.61219 14.5511L9.33874 15.5605ZM9.56081 15.3393C9.65281 15.286 9.75712 15.2574 9.86356 15.2563L9.84453 13.2564C9.39226 13.2607 8.94881 13.3823 8.55753 13.6092L9.56081 15.3393ZM9.85742 15.2564L16.4038 15.2343L16.3971 13.2343L9.85067 13.2564L9.85742 15.2564ZM16.4118 15.2342C16.7478 15.2304 17.0746 15.1236 17.348 14.9281L16.1847 13.3012C16.2444 13.2585 16.3158 13.2352 16.3891 13.2344L16.4118 15.2342ZM17.348 14.9281C17.6214 14.7326 17.8282 14.4579 17.9404 14.141L16.0551 13.4734C16.0797 13.404 16.125 13.3439 16.1847 13.3012L17.348 14.9281ZM17.9404 14.141C18.0526 13.8241 18.0648 13.4803 17.9752 13.1563L16.0475 13.6891C16.0279 13.6181 16.0305 13.5428 16.0551 13.4734L17.9404 14.141ZM17.9752 13.1563C17.8857 12.8322 17.6987 12.5436 17.4398 12.3293L16.1646 13.87C16.108 13.8232 16.0671 13.76 16.0475 13.6891L17.9752 13.1563ZM17.4322 12.3231L2.63279 0.31715L1.37278 1.87033L16.1722 13.8762L17.4322 12.3231ZM2.6432 0.325711C2.35366 0.0842867 1.989 -0.0485207 1.6121 -0.0499237L1.60466 1.95006C1.51616 1.94973 1.43046 1.91855 1.36237 1.86177L2.6432 0.325711Z" fill="#282828" mask="url(#path-1-inside-1_592_2477)"/>
</svg>
