<svg width="24" height="24" viewBox="0 0 24 24" fill="none" xmlns="http://www.w3.org/2000/svg">
<path d="M4.9375 12.9375C6.10417 14.1042 7.52083 14.6875 9.1875 14.6875C10.8542 14.6875 12.2708 14.1042 13.4375 12.9375C14.6042 11.7708 15.1875 10.3542 15.1875 8.6875C15.1875 7.02083 14.6042 5.60417 13.4375 4.4375C12.2708 3.27083 10.8542 2.6875 9.1875 2.6875C7.52083 2.6875 6.10417 3.27083 4.9375 4.4375C3.77083 5.60417 3.1875 7.02083 3.1875 8.6875C3.1875 10.3542 3.77083 11.7708 4.9375 12.9375ZM17.1875 14.6875L23.8125 21.3125L21.8125 23.3125L15.1875 16.6875V15.625L14.8125 15.25C13.2292 16.625 11.3542 17.3125 9.1875 17.3125C6.77083 17.3125 4.70833 16.4792 3 14.8125C1.33333 13.1458 0.5 11.1042 0.5 8.6875C0.5 6.27083 1.33333 4.22917 3 2.5625C4.70833 0.854167 6.77083 0 9.1875 0C11.6042 0 13.6458 0.854167 15.3125 2.5625C16.9792 4.22917 17.8125 6.27083 17.8125 8.6875C17.8125 9.5625 17.6042 10.5625 17.1875 11.6875C16.7708 12.7708 16.2917 13.6458 15.75 14.3125L16.125 14.6875H17.1875Z" fill="#282828"/>
</svg>
